<svg xmlns="http://www.w3.org/2000/svg" viewBox="0 0 48 36"><defs><style>.cls-1{fill:#f2f2f2;}</style></defs><g id="Layer_2" data-name="Layer 2"><g id="Layer_1-2" data-name="Layer 1"><path class="cls-1" d="M43.88,0H4.12A4.13,4.13,0,0,0,0,4.12V31.88A4.13,4.13,0,0,0,4.12,36H43.88A4.13,4.13,0,0,0,48,31.88V4.12A4.13,4.13,0,0,0,43.88,0ZM44,28.81a1.18,1.18,0,0,1-.09.46,1.2,1.2,0,0,1-.63.64,1.14,1.14,0,0,1-.46.09L25.18,28.83A1.19,1.19,0,0,1,24,27.63V7.37a1.19,1.19,0,0,1,1.18-1.2L42.82,5a1.14,1.14,0,0,1,.46.09,1.2,1.2,0,0,1,.63.64,1.18,1.18,0,0,1,.09.46Z"/></g></g></svg>