<svg xmlns="http://www.w3.org/2000/svg" viewBox="0 0 48 36"><defs><style>.cls-1{fill:#f2f2f2;}</style></defs><g id="Layer_2" data-name="Layer 2"><g id="Layer_1-2" data-name="Layer 1"><path class="cls-1" d="M43.88,0H4.12A4.13,4.13,0,0,0,0,4.12V31.88A4.13,4.13,0,0,0,4.12,36H43.88A4.13,4.13,0,0,0,48,31.88V4.12A4.13,4.13,0,0,0,43.88,0Zm1.37,20H32.75c-.42,0-.75-.45-.75-1s.33-1,.75-1h12.5c.42,0,.75.45.75,1S45.67,20,45.25,20Zm-.43,5H28.18A1.18,1.18,0,0,1,27,23.82V22.18A1.18,1.18,0,0,1,28.18,21H44.82A1.18,1.18,0,0,1,46,22.18v1.64A1.18,1.18,0,0,1,44.82,25Z"/></g></g></svg>