<svg xmlns="http://www.w3.org/2000/svg" viewBox="0 0 48 36"><defs><style>.cls-1{fill:#f2f2f2;}</style></defs><g id="Layer_2" data-name="Layer 2"><g id="Layer_1-2" data-name="Layer 1"><path class="cls-1" d="M43.88,0H4.12A4.13,4.13,0,0,0,0,4.12V31.88A4.13,4.13,0,0,0,4.12,36H43.88A4.13,4.13,0,0,0,48,31.88V4.12A4.13,4.13,0,0,0,43.88,0Zm-.17,31H5.29A2.17,2.17,0,0,1,3,29a2.17,2.17,0,0,1,2.29-2H43.71A2.17,2.17,0,0,1,46,29,2.17,2.17,0,0,1,43.71,31ZM22.88,26H4.12a1,1,0,1,1,0-2H22.88a1,1,0,1,1,0,2Z"/></g></g></svg>