<svg xmlns="http://www.w3.org/2000/svg" xmlns:xlink="http://www.w3.org/1999/xlink" viewBox="0 0 35.6 35.6"><defs><style>.cls-1,.cls-2{fill:none;}.cls-1{stroke:#f2f2f2;stroke-miterlimit:10;stroke-width:2px;}.cls-3{clip-path:url(#clip-path);}.cls-4{clip-path:url(#clip-path-2);}.cls-5{fill:#fff;}</style><clipPath id="clip-path" transform="translate(0.8 0.8)"><circle class="cls-1" cx="17" cy="17" r="16"/></clipPath><clipPath id="clip-path-2" transform="translate(0.8 0.8)"><path class="cls-2" d="M21.48,15.09l4.16-3c.36-.3.64-.23.64.32v9.27c0,.61-.35.54-.64.32l-4.16-3ZM7.4,12.39V19.3a2.83,2.83,0,0,0,2.84,2.82H20.32a.51.51,0,0,0,.52-.51V14.7A2.83,2.83,0,0,0,18,11.88H7.92A.51.51,0,0,0,7.4,12.39Z"/></clipPath></defs><g id="Layer_2" data-name="Layer 2"><g id="Layer_1-2" data-name="Layer 1"><g class="cls-3"><path class="cls-1" d="M.2.2H33.8V33.8H.2Z" transform="translate(0.8 0.8)"/></g><circle class="cls-1" cx="17.8" cy="17.8" r="16"/><g class="cls-4"><path class="cls-5" d="M6.6,11.08H27.08V22.92H6.6Z" transform="translate(0.8 0.8)"/></g></g></g></svg>